<?xml version="1.0" encoding="UTF-8" standalone="no"?>
<!-- Created with Inkscape (http://www.inkscape.org/) -->

<svg
   xmlns:dc="http://purl.org/dc/elements/1.1/"
   xmlns:cc="http://creativecommons.org/ns#"
   xmlns:rdf="http://www.w3.org/1999/02/22-rdf-syntax-ns#"
   xmlns:svg="http://www.w3.org/2000/svg"
   xmlns="http://www.w3.org/2000/svg"
   xmlns:sodipodi="http://sodipodi.sourceforge.net/DTD/sodipodi-0.dtd"
   xmlns:inkscape="http://www.inkscape.org/namespaces/inkscape"
   width="210mm"
   height="210mm"
   viewBox="0 0 210 210"
   version="1.1"
   id="svg824"
   inkscape:version="0.92.3 (2405546, 2018-03-11)"
   sodipodi:docname="personalLogoTS3.svg">
  <defs
     id="defs818">
    <inkscape:path-effect
       effect="spiro"
       id="path-effect1964"
       is_visible="true" />
  </defs>
  <sodipodi:namedview
     id="base"
     pagecolor="#ffffff"
     bordercolor="#666666"
     borderopacity="1.0"
     inkscape:pageopacity="0.0"
     inkscape:pageshadow="2"
     inkscape:zoom="0.7"
     inkscape:cx="346.22811"
     inkscape:cy="321.08819"
     inkscape:document-units="mm"
     inkscape:current-layer="layer1"
     showgrid="false"
     inkscape:pagecheckerboard="true"
     inkscape:window-width="1920"
     inkscape:window-height="1001"
     inkscape:window-x="-9"
     inkscape:window-y="-9"
     inkscape:window-maximized="1" />
  <metadata
     id="metadata821">
    <rdf:RDF>
      <cc:Work
         rdf:about="">
        <dc:format>image/svg+xml</dc:format>
        <dc:type
           rdf:resource="http://purl.org/dc/dcmitype/StillImage" />
        <dc:title />
      </cc:Work>
    </rdf:RDF>
  </metadata>
  <g
     inkscape:label="Layer 1"
     inkscape:groupmode="layer"
     id="layer1"
     transform="translate(0,-87)"
     style="display:inline">
    <path
       style="fill:#470369;fill-opacity:1;stroke:none;stroke-width:0.50522542px;stroke-linecap:butt;stroke-linejoin:miter;stroke-opacity:1"
       d="m 142.02936,91.071502 c -13.52433,-0.129842 -27.18011,1.82852 -39.9661,5.8782 -22.189378,7.027928 -44.682286,17.687858 -60.62705,34.644438 -12.308904,13.08998 -19.171093,31.00055 -23.817626,48.35758 -3.803226,14.20686 -4.911425,29.45949 -2.887289,44.02664 1.581398,11.3809 4.861225,23.1345 11.548151,32.4785 9.468138,13.23034 23.441061,23.58144 38.252079,30.31353 12.028186,5.46721 25.903469,9.13871 38.975385,7.21723 9.36805,-1.37708 19.54728,-6.59236 27.15115,-12.23488 8.33455,-6.18474 15.60816,-13.61971 19.7618,-23.13091 5.30352,-12.14423 5.19827,-26.79556 2.16593,-39.69571 -2.34211,-9.96385 -11.02615,-17.05668 -15.91271,-25.94899 -7.03243,-12.79726 -18.41411,-25.25606 -19.24622,-39.35236 -0.60565,-10.25988 5.33501,-22.20029 12.06265,-29.97017 7.96336,-9.19703 21.16595,-16.935 33.20081,-15.15676 7.92578,1.17107 19.37534,8.15056 22.57878,17.01299 2.64866,7.3276 0.12062,17.2137 -5.35993,22.75199 -2.45664,2.48252 -7.05011,4.07359 -10.17278,2.50931 -6.20586,-3.10879 -8.11174,-19.17799 -8.11174,-19.17799 -4.03052,-2.4197 -7.85134,6.35953 -9.03886,10.82584 -2.00221,7.53041 -1.22682,16.98608 3.60862,23.0963 4.35272,5.5002 12.51131,8.67571 19.48671,7.93954 7.23325,-0.7634 14.02461,-6.20857 18.04406,-12.27047 5.42339,-8.17923 7.33472,-19.18077 5.77456,-28.86988 -1.93551,-12.02022 -8.63803,-24.0268 -18.04405,-31.75719 -7.05312,-5.796638 -16.91306,-7.624908 -25.98359,-8.660853 -4.44178,-0.507302 -8.93463,-0.782618 -13.44274,-0.825925 z m -37.80114,34.748068 c 0,0 -3.97198,14.82925 -3.6086,22.37498 0.50243,10.4332 4.48387,20.4564 7.93954,30.31352 3.1356,8.94418 10.30336,16.58667 11.54717,25.9826 1.02258,7.72468 -0.0195,16.18 -3.60862,23.09631 -4.62369,8.91018 -13.58381,17.55584 -23.16456,20.55237 -12.796779,4.00236 -28.179964,2.26029 -38.939769,-5.73996 -9.238916,-6.86937 -12.825919,-20.00817 -14.400813,-31.41282 -1.839743,-13.3226 1.121153,-27.7086 7.217226,-39.6967 6.324894,-12.43808 17.777204,-21.84819 28.86989,-30.31353 8.471452,-6.465 28.148536,-15.15677 28.148536,-15.15677 z"
       id="path1953"
       inkscape:connector-curvature="0"
       sodipodi:nodetypes="ccssssscsscasscaaassccssscccccscccsscc"
       inkscape:export-filename="C:\Users\tinas\Desktop\Workspace\Personal Page\img\logoP.png"
       inkscape:export-xdpi="96"
       inkscape:export-ydpi="96" />
  </g>
  <g
     inkscape:groupmode="layer"
     id="layer2"
     inkscape:label="Layer 2"
     style="display:inline" />
  <g
     inkscape:groupmode="layer"
     id="layer3"
     inkscape:label="Layer 3"
     style="display:inline" />
</svg>
