<?xml version="1.0" encoding="UTF-8" standalone="no"?>
<!-- Created with Inkscape (http://www.inkscape.org/) -->

<svg
   xmlns:dc="http://purl.org/dc/elements/1.1/"
   xmlns:cc="http://creativecommons.org/ns#"
   xmlns:rdf="http://www.w3.org/1999/02/22-rdf-syntax-ns#"
   xmlns:svg="http://www.w3.org/2000/svg"
   xmlns="http://www.w3.org/2000/svg"
   xmlns:sodipodi="http://sodipodi.sourceforge.net/DTD/sodipodi-0.dtd"
   xmlns:inkscape="http://www.inkscape.org/namespaces/inkscape"
   width="210mm"
   height="210mm"
   viewBox="0 0 210 210"
   version="1.1"
   id="svg824"
   inkscape:version="0.92.3 (2405546, 2018-03-11)"
   sodipodi:docname="personalLogoTS3shadow.svg">
  <defs
     id="defs818">
    <inkscape:path-effect
       effect="spiro"
       id="path-effect1964"
       is_visible="true" />
  </defs>
  <sodipodi:namedview
     id="base"
     pagecolor="#ffffff"
     bordercolor="#666666"
     borderopacity="1.0"
     inkscape:pageopacity="0.0"
     inkscape:pageshadow="2"
     inkscape:zoom="0.7"
     inkscape:cx="584.79954"
     inkscape:cy="321.08819"
     inkscape:document-units="mm"
     inkscape:current-layer="layer1"
     showgrid="false"
     inkscape:pagecheckerboard="true"
     inkscape:window-width="1920"
     inkscape:window-height="1001"
     inkscape:window-x="-9"
     inkscape:window-y="-9"
     inkscape:window-maximized="1" />
  <metadata
     id="metadata821">
    <rdf:RDF>
      <cc:Work
         rdf:about="">
        <dc:format>image/svg+xml</dc:format>
        <dc:type
           rdf:resource="http://purl.org/dc/dcmitype/StillImage" />
        <dc:title></dc:title>
      </cc:Work>
    </rdf:RDF>
  </metadata>
  <g
     inkscape:label="Layer 1"
     inkscape:groupmode="layer"
     id="layer1"
     transform="translate(0,-87)"
     style="display:inline">
    <path
       style="fill:#000000;fill-opacity:1;stroke:#000000;stroke-width:0.50522542px;stroke-linecap:butt;stroke-linejoin:miter;stroke-opacity:1"
       d="m 138.47638,98.25305 c -13.52433,-0.129842 -27.18011,1.82852 -39.966097,5.8782 -22.189378,7.02793 -44.682286,17.68786 -60.62705,34.64444 -12.308904,13.08998 -19.171093,31.00055 -23.817626,48.35758 -3.803226,14.20686 -4.9114241,29.45949 -2.887289,44.02664 1.581398,11.3809 4.861225,23.1345 11.548151,32.4785 9.468138,13.23034 23.441061,23.58144 38.252079,30.31353 12.028186,5.46721 25.903469,9.13871 38.975385,7.21723 9.368047,-1.37708 17.657397,-7.34831 25.261267,-12.99083 8.33455,-6.18474 17.49804,-12.86376 21.65168,-22.37496 5.30352,-12.14423 5.19827,-26.79556 2.16593,-39.69571 -2.34211,-9.96385 -11.02615,-17.05668 -15.91271,-25.94899 -7.03243,-12.79726 -18.41411,-25.25606 -19.24622,-39.35236 -0.60565,-10.25988 5.33501,-22.20029 12.06265,-29.97017 7.96336,-9.19703 21.16595,-16.935 33.20081,-15.15676 7.92578,1.17107 19.37534,8.15056 22.57878,17.01299 2.64866,7.3276 0.12062,17.2137 -5.35993,22.75199 -2.45664,2.48252 -7.05011,4.07359 -10.17278,2.50931 -6.20586,-3.10879 -8.11174,-19.17799 -8.11174,-19.17799 -4.03052,-2.4197 -7.85134,6.35953 -9.03886,10.82584 -2.00221,7.53041 -1.22682,16.98608 3.60862,23.0963 4.35272,5.5002 12.51131,8.67571 19.48671,7.93954 7.23325,-0.7634 14.02461,-6.20857 18.04406,-12.27047 5.42339,-8.17923 7.33472,-19.18077 5.77456,-28.86988 -1.93551,-12.02022 -8.63803,-24.0268 -18.04405,-31.75719 -7.05312,-5.79664 -16.91306,-7.62491 -25.98359,-8.660855 -4.44178,-0.507302 -8.93463,-0.782618 -13.44274,-0.825925 z m -37.80114,34.74807 c 0,0 -3.971973,14.82925 -3.608602,22.37498 0.502435,10.4332 4.483872,20.4564 7.939542,30.31352 3.1356,8.94418 10.30336,16.58667 11.54717,25.9826 1.02258,7.72468 -0.0195,16.18 -3.60862,23.09631 -4.62369,8.91018 -13.583807,17.55584 -23.164557,20.55237 -12.796779,4.00236 -28.179964,2.26029 -38.939769,-5.73996 -9.238916,-6.86937 -12.825919,-20.00817 -14.400813,-31.41282 -1.839743,-13.3226 1.121153,-27.7086 7.217226,-39.6967 6.324894,-12.43808 17.777204,-21.84819 28.86989,-30.31353 8.471452,-6.465 28.148533,-15.15677 28.148533,-15.15677 z"
       id="path1953"
       inkscape:connector-curvature="0"
       sodipodi:nodetypes="ccssssscsscasscaaassccssscccccscccsscc" />
    <path
       style="display:inline;fill:#000000;fill-opacity:1;stroke:#000000;stroke-width:0.20903896px;stroke-linecap:butt;stroke-linejoin:miter;stroke-opacity:1"
       d="m 162.14895,332.91658 c -13.52433,0.0223 -27.18011,-0.31303 -39.96611,-1.0063 -22.189386,-1.20313 -44.682289,-3.02802 -60.627055,-5.93086 -12.3089,-2.2409 -19.17109,-5.30705 -23.81763,-8.27844 -3.80322,-2.4321 -4.911421,-5.04324 -2.88728,-7.53702 1.58139,-1.94832 4.86122,-3.96044 11.54815,-5.56006 9.46813,-2.26493 23.44106,-4.03696 38.252076,-5.18945 12.028183,-0.93594 25.903479,-1.56447 38.975389,-1.23553 9.36806,0.23575 17.65741,1.25798 25.26128,2.22393 8.33455,1.05878 17.49804,2.20218 21.65168,3.83042 5.30352,2.079 5.19827,4.58719 2.16593,6.7956 -2.34211,1.70573 -11.02615,2.91997 -15.91271,4.44226 -7.03243,2.19079 -18.41411,4.32364 -19.24622,6.73682 -0.60565,1.75641 5.33501,3.80052 12.06265,5.13066 7.96336,1.57446 21.16595,2.89914 33.20081,2.59472 7.92578,-0.20048 19.37534,-1.39531 22.57878,-2.91249 2.64866,-1.25443 0.12062,-2.94685 -5.35993,-3.89496 -2.45664,-0.42499 -7.05011,-0.69737 -10.17278,-0.42958 -6.20586,0.5322 -8.11174,3.28312 -8.11174,3.28312 -4.03052,0.41424 -7.85134,-1.0887 -9.03886,-1.8533 -2.00221,-1.28915 -1.22682,-2.90788 3.60862,-3.9539 4.35272,-0.94159 12.51131,-1.48522 19.48671,-1.35919 7.23325,0.13068 14.02461,1.06286 18.04406,2.10061 5.42339,1.40022 7.33472,3.2836 5.77456,4.9423 -1.93551,2.05776 -8.63803,4.1132 -18.04405,5.43658 -7.05312,0.99234 -16.91306,1.30533 -25.98359,1.48267 -4.44178,0.0869 -8.93463,0.13398 -13.44274,0.14139 z m -37.80115,-5.9486 c 0,0 -3.97198,-2.53865 -3.6086,-3.83042 0.50243,-1.78608 4.48388,-3.50197 7.93955,-5.18944 3.1356,-1.53117 10.30336,-2.8395 11.54717,-4.44802 1.02258,-1.3224 -0.0195,-2.76989 -3.60862,-3.9539 -4.62369,-1.52536 -13.58382,-3.00543 -23.16457,-3.51841 -12.79679,-0.68518 -28.179969,-0.38695 -38.939779,0.98264 -9.238906,1.17598 -12.825916,3.42524 -14.400806,5.37763 -1.83974,2.28072 1.12115,4.74349 7.21722,6.79577 6.324896,2.1293 17.777206,3.74024 28.869899,5.18944 8.471446,1.10675 28.148536,2.59471 28.148536,2.59471 z"
       id="path1953-6"
       inkscape:connector-curvature="0"
       sodipodi:nodetypes="ccssssscsscasscaaassccssscccccscccsscc" />
  </g>
  <g
     inkscape:groupmode="layer"
     id="layer2"
     inkscape:label="Layer 2"
     style="display:inline" />
  <g
     inkscape:groupmode="layer"
     id="layer3"
     inkscape:label="Layer 3"
     style="display:inline" />
</svg>
