<?xml version="1.0" encoding="UTF-8" standalone="no"?>
<!-- Created with Inkscape (http://www.inkscape.org/) -->

<svg
   xmlns:dc="http://purl.org/dc/elements/1.1/"
   xmlns:cc="http://creativecommons.org/ns#"
   xmlns:rdf="http://www.w3.org/1999/02/22-rdf-syntax-ns#"
   xmlns:svg="http://www.w3.org/2000/svg"
   xmlns="http://www.w3.org/2000/svg"
   xmlns:xlink="http://www.w3.org/1999/xlink"
   xmlns:sodipodi="http://sodipodi.sourceforge.net/DTD/sodipodi-0.dtd"
   xmlns:inkscape="http://www.inkscape.org/namespaces/inkscape"
   version="1.1"
   id="svg10"
   width="275"
   height="275"
   viewBox="0 0 275 275"
   sodipodi:docname="personalLogoTSPurpleBlue.svg"
   inkscape:version="0.92.3 (2405546, 2018-03-11)"
   inkscape:export-filename="C:\Users\tinas\Desktop\Workspace\Personal Page\img\logoPb.png"
   inkscape:export-xdpi="96"
   inkscape:export-ydpi="96">
  <metadata
     id="metadata16">
    <rdf:RDF>
      <cc:Work
         rdf:about="">
        <dc:format>image/svg+xml</dc:format>
        <dc:type
           rdf:resource="http://purl.org/dc/dcmitype/StillImage" />
        <dc:title></dc:title>
      </cc:Work>
    </rdf:RDF>
  </metadata>
  <defs
     id="defs14">
    <linearGradient
       inkscape:collect="always"
       id="linearGradient828-3-6-4">
      <stop
         style="stop-color:#9365f0;stop-opacity:0.98913044"
         offset="0"
         id="stop824" />
      <stop
         style="stop-color:#5284f0;stop-opacity:1"
         offset="1"
         id="stop826" />
    </linearGradient>
    <linearGradient
       inkscape:collect="always"
       xlink:href="#linearGradient828-3-6-4"
       id="linearGradient866"
       x1="6.7183685"
       y1="137.94304"
       x2="181.73267"
       y2="137.94304"
       gradientUnits="userSpaceOnUse"
       gradientTransform="rotate(27.867022,134.73444,215.31701)" />
  </defs>
  <sodipodi:namedview
     pagecolor="#ffffff"
     bordercolor="#666666"
     borderopacity="1"
     objecttolerance="10"
     gridtolerance="10"
     guidetolerance="10"
     inkscape:pageopacity="0"
     inkscape:pageshadow="2"
     inkscape:window-width="1920"
     inkscape:window-height="1001"
     id="namedview12"
     showgrid="false"
     inkscape:zoom="2.1005231"
     inkscape:cx="89.887084"
     inkscape:cy="153.54179"
     inkscape:window-x="-9"
     inkscape:window-y="-9"
     inkscape:window-maximized="1"
     inkscape:current-layer="layer1"
     inkscape:pagecheckerboard="true"
     height="275px" />
  <g
     inkscape:groupmode="layer"
     id="layer1"
     inkscape:label="big paisley"
     transform="translate(0,3)">
    <path
       style="fill:url(#linearGradient866);fill-opacity:1;stroke:none;stroke-width:1px;stroke-linecap:butt;stroke-linejoin:miter;stroke-opacity:1"
       d="M 211.29164,23.302615 C 183.52513,10.099083 150.42856,15.359203 123.43202,27.938834 80.686539,47.85218 47.36741,88.701432 40.328559,135.79901 c -6.391548,36.67692 3.734272,78.2452 33.097346,102.74547 24.320205,20.32415 62.110355,24.24121 88.637875,5.86749 21.20225,-14.72245 34.59711,-39.69599 36.82249,-65.23414 1.01729,-25.02416 -14.5789,-46.24938 -24.06644,-68.20549 -10.53721,-22.453241 7.57766,-52.09924 32.36595,-52.977962 14.32216,-0.06849 31.30823,7.613122 35.80064,21.339007 1.58751,4.313833 3.70697,13.517475 3.70697,13.517475 6.27604,-23.417152 -5.65911,-48.326498 -24.43582,-62.4091 -3.42111,-2.715459 -7.0805,-5.139177 -10.96593,-7.139145 z m -60.58083,33.793521 c -9.81978,13.505945 -16.44966,30.593079 -12.61891,47.407914 3.06767,21.70007 16.87051,39.87217 22.36808,60.66627 5.33933,25.96311 -18.06805,54.41545 -45.10312,51.19447 C 99.14902,214.46112 86.729764,201.07992 82.216077,186.07213 70.462427,152.83215 80.422198,114.50725 102.6002,88.234856 115.61131,73.568272 132.75974,63.020924 151.0295,56.643818 Z"
       id="path21"
       inkscape:connector-curvature="0"
       sodipodi:nodetypes="cccccccccccccccccccc"
       inkscape:export-xdpi="96"
       inkscape:export-ydpi="96" />
  </g>
  <g
     inkscape:groupmode="layer"
     id="layer2"
     inkscape:label="inner paisley "
     style="display:none"
     sodipodi:insensitive="true"
     transform="translate(0,3)" />
</svg>
